<svg width="26" height="27" viewBox="0 0 26 27" fill="none" xmlns="http://www.w3.org/2000/svg">
<path d="M4.15197 9.79607C3.99456 9.08703 4.01873 8.34973 4.22224 7.65252C4.42574 6.95531 4.80199 6.32077 5.3161 5.80773C5.83021 5.2947 6.46554 4.91978 7.16317 4.71773C7.86081 4.51569 8.59816 4.49306 9.30687 4.65196C9.69695 4.04189 10.2343 3.53983 10.8695 3.19207C11.5046 2.8443 12.2171 2.66202 12.9412 2.66202C13.6653 2.66202 14.3778 2.8443 15.0129 3.19207C15.648 3.53983 16.1854 4.04189 16.5755 4.65196C17.2853 4.49237 18.0239 4.5149 18.7227 4.71743C19.4214 4.91997 20.0576 5.29593 20.572 5.81036C21.0864 6.32478 21.4624 6.96096 21.6649 7.6597C21.8675 8.35845 21.89 9.09707 21.7304 9.80686C22.3405 10.1969 22.8425 10.7343 23.1903 11.3695C23.5381 12.0046 23.7203 12.7171 23.7203 13.4412C23.7203 14.1653 23.5381 14.8778 23.1903 15.5129C22.8425 16.148 22.3405 16.6854 21.7304 17.0755C21.8893 17.7842 21.8667 18.5215 21.6646 19.2192C21.4626 19.9168 21.0877 20.5521 20.5746 21.0663C20.0616 21.5804 19.427 21.9566 18.7298 22.1601C18.0326 22.3636 17.2953 22.3878 16.5863 22.2304C16.1967 22.8428 15.6589 23.347 15.0227 23.6963C14.3865 24.0456 13.6724 24.2288 12.9466 24.2288C12.2208 24.2288 11.5067 24.0456 10.8705 23.6963C10.2342 23.347 9.69644 22.8428 9.30687 22.2304C8.59816 22.3893 7.86081 22.3667 7.16317 22.1646C6.46554 21.9626 5.83021 21.5876 5.3161 21.0746C4.80199 20.5616 4.42574 19.927 4.22224 19.2298C4.01873 18.5326 3.99456 17.7953 4.15197 17.0863C3.53722 16.6972 3.03085 16.159 2.67996 15.5217C2.32908 14.8844 2.14508 14.1687 2.14508 13.4412C2.14508 12.7137 2.32908 11.998 2.67996 11.3606C3.03085 10.7233 3.53722 10.1851 4.15197 9.79607Z" fill="url(#paint0_linear_9_21403)"/>
<path d="M8.62744 9.12746H17.2549M8.62744 13.4412H17.2549M14.0196 18.8333L8.62744 17.7549H9.70587C10.8499 17.7549 11.9472 17.3004 12.7561 16.4914C13.5651 15.6825 14.0196 14.5853 14.0196 13.4412C14.0196 12.2971 13.5651 11.1999 12.7561 10.3909C11.9472 9.58194 10.8499 9.12746 9.70587 9.12746" stroke="white" stroke-width="2.15686" stroke-linecap="round" stroke-linejoin="round"/>
<defs>
<linearGradient id="paint0_linear_9_21403" x1="12.9412" y1="2.65688" x2="12.9412" y2="80.8432" gradientUnits="userSpaceOnUse">
<stop stop-color="#008838"/>
<stop offset="1"/>
</linearGradient>
</defs>
</svg>
