<svg width="87" height="25" viewBox="0 0 87 25" fill="none" xmlns="http://www.w3.org/2000/svg">
<path d="M22.9162 2.05212C20.8636 2.05212 19.1643 3.55758 18.8347 5.53125C18.5052 3.55714 16.8059 2.05212 14.7532 2.05212C12.7006 2.05212 11.0013 3.55758 10.6717 5.53125C10.3422 3.55714 8.64287 2.05212 6.59021 2.05212C4.30197 2.05212 2.44678 3.92151 2.44678 6.22725C2.44678 8.533 4.30197 10.4024 6.59021 10.4024C8.64287 10.4024 10.3422 8.89693 10.6717 6.92325C11.0013 8.89736 12.7006 10.4024 14.7532 10.4024C16.8059 10.4024 18.5052 8.89693 18.8347 6.92325C19.1643 8.89736 20.8636 10.4024 22.9162 10.4024C25.2045 10.4024 27.0597 8.533 27.0597 6.22725C27.0597 3.92151 25.2045 2.05212 22.9162 2.05212Z" fill="white"/>
<path d="M22.9162 14.5981C20.8636 14.5981 19.1643 16.1035 18.8347 18.0772C18.5052 16.1031 16.8059 14.5981 14.7532 14.5981C12.7006 14.5981 11.0013 16.1035 10.6717 18.0772C10.3422 16.1031 8.64287 14.5981 6.59021 14.5981C4.30197 14.5981 2.44678 16.4675 2.44678 18.7732C2.44678 21.0789 4.30197 22.9483 6.59021 22.9483C8.64287 22.9483 10.3422 21.4429 10.6717 19.4692C11.0013 21.4433 12.7006 22.9483 14.7532 22.9483C16.8059 22.9483 18.5052 21.4429 18.8347 19.4692C19.1643 21.4433 20.8636 22.9483 22.9162 22.9483C25.2045 22.9483 27.0597 21.0789 27.0597 18.7732C27.0597 16.4675 25.2045 14.5981 22.9162 14.5981Z" fill="white"/>
<path d="M51.4199 6.54361C48.3959 6.54361 45.9357 9.02259 45.9357 12.0702C45.9357 15.1177 48.3959 17.5967 51.4199 17.5967C52.9542 17.5967 54.3417 16.9566 55.3381 15.9298V21.3346H56.9045V12.0702C56.9045 9.02303 54.4439 6.54361 51.4199 6.54361ZM51.4199 16.0184C49.2594 16.0184 47.5016 14.2472 47.5016 12.0702C47.5016 9.89314 49.2594 8.12194 51.4199 8.12194C53.5804 8.12194 55.3381 9.89314 55.3381 12.0702C55.3381 14.2472 53.5804 16.0184 51.4199 16.0184Z" fill="white"/>
<path d="M75.5704 6.54361C72.5464 6.54361 70.0862 9.02259 70.0862 12.0702C70.0862 15.1177 72.5464 17.5967 75.5704 17.5967C77.1047 17.5967 78.4922 16.9566 79.4886 15.9298V17.5967H81.055V12.0702C81.055 9.02303 78.5944 6.54361 75.5704 6.54361ZM75.5704 16.0184C73.4099 16.0184 71.6522 14.2472 71.6522 12.0702C71.6522 9.89314 73.4099 8.12194 75.5704 8.12194C77.7309 8.12194 79.4886 9.89314 79.4886 12.0702C79.4886 14.2472 77.7309 16.0184 75.5704 16.0184Z" fill="white"/>
<path d="M39.4569 6.54361C36.4329 6.54361 33.9724 9.02259 33.9724 12.0702C33.9724 15.1177 36.4329 17.5967 39.4569 17.5967C40.9215 17.5967 42.2991 17.022 43.3349 15.9782L43.8888 15.4201L42.7815 14.3039L42.2276 14.862C41.4875 15.6078 40.5032 16.0184 39.4569 16.0184C37.5645 16.0184 35.9813 14.6595 35.6171 12.8591H44.9411V12.0702C44.9411 9.02303 42.4809 6.54361 39.4569 6.54361ZM35.6171 11.2808C35.9813 9.48034 37.5645 8.1215 39.4569 8.1215C41.3494 8.1215 42.9326 9.48034 43.2964 11.2808H35.6171Z" fill="white"/>
<path d="M84.5535 3.66586H82.9872V17.5972H84.5535V3.66586Z" fill="white"/>
<path d="M67.4027 12.0703C67.4027 14.2473 65.645 16.0185 63.4845 16.0185C61.324 16.0185 59.5662 14.2473 59.5662 12.0703V6.98756H57.9999V12.0703C57.9999 15.1175 60.4605 17.5969 63.4845 17.5969C66.5085 17.5969 68.9691 15.1179 68.9691 12.0703V6.98756H67.4027V12.0703Z" fill="white"/>
</svg>
